<?xml version="1.0" standalone="yes"?>
<svg xmlns="http://www.w3.org/2000/svg" width="256" height="256">
<path style="fill:#010101; stroke:none;" d="M0 0L0 112L1 112C2.1042 58.5022 58.5021 2.10419 112 1L78 0L0 0z"/>
<path style="fill:#75b701; stroke:none;" d="M112 0.425156C92.7964 3.0392 74.3588 9.1606 58 19.6983C44.0485 28.6853 32.0464 40.5158 22.4275 54C-40.8787 142.745 35.5363 268.567 143 255.715C161.474 253.505 178.976 247.564 195 238.139C208.746 230.053 221.06 218.727 230.625 206C285.597 132.855 246.75 23.219 157 2.65123C142.85 -0.591461 126.426 -1.53851 112 0.425156z"/>
<path style="fill:#010101; stroke:none;" d="M144 0L144 1C197.498 2.10419 253.896 58.5022 255 112L256 112L256 0L144 0z"/>
<path style="fill:#c8e398; stroke:none;" d="M101 68C101 73.0743 102.717 80.9422 98 84L98 85L101 85L101 132C101 136.288 98.9385 145.915 104 147L104 146C97.7329 137.728 102.027 114.346 102 104L112 104L112 103L102 103L101 68z"/>
<path style="fill:#fffffe; stroke:none;" d="M102 68L102 84C122.744 84 140.519 89.683 157 102.669C160.7 105.584 170.944 112.846 170.944 118C170.944 123.156 160.624 130.503 157 133.561C141.321 146.791 123.103 157.667 102 155L102 165C120.096 165 137.204 161.944 153 152.547C160.658 147.991 172.427 134.489 181 133.496C187.211 132.776 197.483 141.261 202 145C173.345 158.556 135.715 182.027 102 174L102 188L215 188L215 68L102 68z"/>
<path style="fill:#a8d25b; stroke:none;" d="M215 68L215 188L216 188L216 104L215 68M96.6667 84.3333L97.3333 84.6667L96.6667 84.3333z"/>
<path style="fill:#75b701; stroke:none;" d="M102 84L102 93C116.293 90.9601 131.17 97.7386 142 106.616C145.141 109.19 151.712 113.622 152.23 118C152.766 122.525 144.977 128.699 141.961 131.424C130.021 142.21 118.325 149.063 102 147L102 155C123.874 155 141.596 147.593 158 132.829C161.608 129.582 170.527 123.196 170.883 118C171.273 112.308 161.829 106.496 158 103.45C141.721 90.4993 122.735 84.0023 102 84z"/>
<path style="fill:#a8d25b; stroke:none;" d="M112 84L112 85L115 85L112 84z"/>
<path style="fill:#c8e398; stroke:none;" d="M115 84L115 85L118 85L115 84z"/>
<path style="fill:#a8d25b; stroke:none;" d="M91 85L92 86L91 85z"/>
<path style="fill:#c8e398; stroke:none;" d="M92.6667 85.3333L93.3333 85.6667L92.6667 85.3333z"/>
<path style="fill:#fffffe; stroke:none;" d="M101 174L101 165C83.563 161.391 69.7001 151.081 60.2292 136C57.7129 131.993 52.4564 125.005 53.4676 120C54.41 115.336 59.5269 111.595 63 108.808C73.7012 100.22 87.0945 93.5986 101 93L101 85C82.4295 85.1537 63.8481 94.9856 49 105.439C44.8307 108.374 35.8423 113.435 35.213 119.001C34.5028 125.281 41.7103 134.145 45.0285 139C58.7705 159.107 77.5934 169.59 101 174z"/>
<path style="fill:#a8d25b; stroke:none;" d="M120 85L121 86L120 85z"/>
<path style="fill:#c8e398; stroke:none;" d="M121.667 85.3333L122.333 85.6667L121.667 85.3333z"/>
<path style="fill:#a8d25b; stroke:none;" d="M87 86L88 87L87 86z"/>
<path style="fill:#c8e398; stroke:none;" d="M88 86L89 87L88 86z"/>
<path style="fill:#a8d25b; stroke:none;" d="M124.667 86.3333L125.333 86.6667L124.667 86.3333z"/>
<path style="fill:#c8e398; stroke:none;" d="M126 86L127 87L126 86z"/>
<path style="fill:#a8d25b; stroke:none;" d="M83 87L84 88L83 87z"/>
<path style="fill:#c8e398; stroke:none;" d="M84.6667 87.3333L85.3333 87.6667L84.6667 87.3333z"/>
<path style="fill:#a8d25b; stroke:none;" d="M128 87L129 88L128 87z"/>
<path style="fill:#c8e398; stroke:none;" d="M129 87L130 88L129 87z"/>
<path style="fill:#a8d25b; stroke:none;" d="M80 88L81 89L80 88z"/>
<path style="fill:#c8e398; stroke:none;" d="M81 88L82 89L81 88z"/>
<path style="fill:#a8d25b; stroke:none;" d="M131 88L132 89L131 88z"/>
<path style="fill:#c8e398; stroke:none;" d="M132 88L133 89L132 88z"/>
<path style="fill:#a8d25b; stroke:none;" d="M78 89L79 90L78 89M134 89L135 90L134 89M75 90L76 91L75 90z"/>
<path style="fill:#c8e398; stroke:none;" d="M76 90L77 91L76 90z"/>
<path style="fill:#a8d25b; stroke:none;" d="M136 90L137 91L136 90z"/>
<path style="fill:#c8e398; stroke:none;" d="M137 90L138 91L137 90z"/>
<path style="fill:#a8d25b; stroke:none;" d="M73 91L74 92L73 91M138 91L139 92L138 91z"/>
<path style="fill:#c8e398; stroke:none;" d="M139 91L140 92L139 91M71 92L72 93L71 92z"/>
<path style="fill:#a8d25b; stroke:none;" d="M104 92L104 93L108 93L104 92z"/>
<path style="fill:#c8e398; stroke:none;" d="M141 92L142 93L141 92M69 93L70 94L69 93M95.6667 93.3333L96.3333 93.6667L95.6667 93.3333z"/>
<path style="fill:#a8d25b; stroke:none;" d="M97 93L97 94L100 94L97 93z"/>
<path style="fill:#75b701; stroke:none;" d="M100 93C84.9239 97.5811 61.7134 101.39 54.2191 118C51.7737 123.42 56.9373 130.529 59.6042 135C68.3228 149.618 83.1422 163.184 101 164C100.998 161.521 101.595 157.827 99.9722 155.727C97.6644 152.74 91.2815 151.544 88 149.663C75.6142 142.562 59.1026 124.444 75 113.749C78.4482 111.429 82.2202 109.512 86 107.792C90.7397 105.636 95.802 104.238 101 104L100 93z"/>
<path style="fill:#fffffe; stroke:none;" d="M102 93L102 103C110.729 103.006 134.317 106.22 136.218 117.715C136.931 122.027 124.37 129.456 121 131C118.142 121.972 111.707 114.854 102 114L102 137C102.001 139.607 101.261 143.966 103.603 145.821C115.074 154.906 137.87 136.361 144.91 128.985C147.269 126.514 151.701 122.6 152.083 119C152.552 114.571 145.947 109.813 143 107.301C131.311 97.3341 117.145 93.0016 102 93z"/>
<path style="fill:#c8e398; stroke:none;" d="M112 93L112 94L115 94L112 93z"/>
<path style="fill:#a8d25b; stroke:none;" d="M115 93L116 94L115 93z"/>
<path style="fill:#c8e398; stroke:none;" d="M143 93L144 94L143 93M67 94L68 95L67 94M90.6667 94.3333L91.3333 94.6667L90.6667 94.3333z"/>
<path style="fill:#a8d25b; stroke:none;" d="M92 94L93 95L92 94z"/>
<path style="fill:#c8e398; stroke:none;" d="M118 94L119 95L118 94z"/>
<path style="fill:#a8d25b; stroke:none;" d="M119 94L120 95L119 94M144 94L145 95L144 94z"/>
<path style="fill:#c8e398; stroke:none;" d="M145 94L146 95L145 94M65 95L66 96L65 95M87 95L88 96L87 95z"/>
<path style="fill:#a8d25b; stroke:none;" d="M88 95L89 96L88 95z"/>
<path style="fill:#c8e398; stroke:none;" d="M121 95L122 96L121 95z"/>
<path style="fill:#a8d25b; stroke:none;" d="M122 95L123 96L122 95M146 95L147 96L146 95z"/>
<path style="fill:#c8e398; stroke:none;" d="M63 96L64 97L63 96M84 96L85 97L84 96z"/>
<path style="fill:#a8d25b; stroke:none;" d="M85 96L86 97L85 96z"/>
<path style="fill:#c8e398; stroke:none;" d="M124 96L125 97L124 96z"/>
<path style="fill:#a8d25b; stroke:none;" d="M125 96L126 97L125 96z"/>
<path style="fill:#c8e398; stroke:none;" d="M148 96L149 97L148 96z"/>
<path style="fill:#a8d25b; stroke:none;" d="M61 97L62 98L61 97z"/>
<path style="fill:#c8e398; stroke:none;" d="M81 97L82 98L81 97z"/>
<path style="fill:#a8d25b; stroke:none;" d="M82 97L83 98L82 97z"/>
<path style="fill:#c8e398; stroke:none;" d="M127 97L128 98L127 97z"/>
<path style="fill:#a8d25b; stroke:none;" d="M149 97L150 98L149 97M59 98L60 99L59 98M79 98L80 99L79 98z"/>
<path style="fill:#c8e398; stroke:none;" d="M129 98L130 99L129 98M151 98L152 99L151 98M58 99L59 100L58 99z"/>
<path style="fill:#a8d25b; stroke:none;" d="M77 99L78 100L77 99z"/>
<path style="fill:#c8e398; stroke:none;" d="M131 99L132 100L131 99z"/>
<path style="fill:#a8d25b; stroke:none;" d="M152 99L153 100L152 99M56 100L57 101L56 100M75 100L76 101L75 100M133 100L134 101L133 100z"/>
<path style="fill:#c8e398; stroke:none;" d="M154 100L155 101L154 100z"/>
<path style="fill:#a8d25b; stroke:none;" d="M54 101L55 102L54 101z"/>
<path style="fill:#c8e398; stroke:none;" d="M55 101L56 102L55 101z"/>
<path style="fill:#a8d25b; stroke:none;" d="M73 101L74 102L73 101z"/>
<path style="fill:#c8e398; stroke:none;" d="M134 101L135 102L134 101z"/>
<path style="fill:#a8d25b; stroke:none;" d="M135 101L136 102L135 101M155 101L156 102L155 101z"/>
<path style="fill:#c8e398; stroke:none;" d="M53 102L54 103L53 102M71 102L72 103L71 102M136 102L137 103L136 102z"/>
<path style="fill:#a8d25b; stroke:none;" d="M156 102L157 103L156 102M51 103L52 104L51 103M70 103L71 104L70 103M138 103L139 104L138 103z"/>
<path style="fill:#c8e398; stroke:none;" d="M158 103L159 104L158 103M50 104L51 105L50 104M68 104L69 105L68 104z"/>
<path style="fill:#a8d25b; stroke:none;" d="M95.6667 104.333L96.3333 104.667L95.6667 104.333z"/>
<path style="fill:#c8e398; stroke:none;" d="M97.6667 104.333L98.3333 104.667L97.6667 104.333z"/>
<path style="fill:#fffffe; stroke:none;" d="M101 154C100.952 140.37 66.3999 125.785 92 114.684C94.9632 113.4 97.8126 113.075 101 113L101 104C91.0412 105.931 73.0361 109.883 68.0679 120.09C65.9447 124.453 69.8047 130.429 72.0903 134C78.5027 144.019 88.7347 152.922 101 154z"/>
<path style="fill:#75b701; stroke:none;" d="M102 104L102 113C112.026 115.383 117.334 122.236 122 131C125.597 128.621 135.793 122.813 135.793 117.975C135.793 114.686 131.387 112.096 129 110.548C120.484 105.023 111.877 104 102 104z"/>
<path style="fill:#a8d25b; stroke:none;" d="M114.667 104.333L115.333 104.667L114.667 104.333z"/>
<path style="fill:#c8e398; stroke:none;" d="M116 104L117 105L116 104z"/>
<path style="fill:#a8d25b; stroke:none;" d="M139 104L140 105L139 104z"/>
<path style="fill:#c8e398; stroke:none;" d="M159 104L160 105L159 104z"/>
<path style="fill:#a8d25b; stroke:none;" d="M67 105L68 106L67 105M92 105L93 106L92 105z"/>
<path style="fill:#c8e398; stroke:none;" d="M93 105L94 106L93 105z"/>
<path style="fill:#a8d25b; stroke:none;" d="M118 105L119 106L118 105z"/>
<path style="fill:#c8e398; stroke:none;" d="M119 105L120 106L119 105M140 105L141 106L140 105z"/>
<path style="fill:#a8d25b; stroke:none;" d="M160 105L161 106L160 105M47 106L48 107L47 106z"/>
<path style="fill:#c8e398; stroke:none;" d="M65 106L66 107L65 106z"/>
<path style="fill:#a8d25b; stroke:none;" d="M88 106L89 107L88 106z"/>
<path style="fill:#c8e398; stroke:none;" d="M89 106L90 107L89 106z"/>
<path style="fill:#a8d25b; stroke:none;" d="M121 106L122 107L121 106z"/>
<path style="fill:#c8e398; stroke:none;" d="M122 106L123 107L122 106z"/>
<path style="fill:#a8d25b; stroke:none;" d="M161 106L162 107L161 106z"/>
<path style="fill:#c8e398; stroke:none;" d="M46 107L47 108L46 107z"/>
<path style="fill:#a8d25b; stroke:none;" d="M64 107L65 108L64 107M86 107L87 108L86 107z"/>
<path style="fill:#c8e398; stroke:none;" d="M87 107L88 108L87 107z"/>
<path style="fill:#a8d25b; stroke:none;" d="M123 107L124 108L123 107z"/>
<path style="fill:#c8e398; stroke:none;" d="M124 107L125 108L124 107z"/>
<path style="fill:#a8d25b; stroke:none;" d="M143 107L144 108L143 107M162 107L163 108L162 107M44 108L45 109L44 108M63 108L64 109L63 108z"/>
<path style="fill:#c8e398; stroke:none;" d="M84 108L85 109L84 108z"/>
<path style="fill:#a8d25b; stroke:none;" d="M125 108L126 109L125 108M144 108L145 109L144 108M43 109L44 110L43 109z"/>
<path style="fill:#c8e398; stroke:none;" d="M82 109L83 110L82 109z"/>
<path style="fill:#a8d25b; stroke:none;" d="M127 109L128 110L127 109z"/>
<path style="fill:#c8e398; stroke:none;" d="M145 109L146 110L145 109M42 110L43 111L42 110M60 110L61 111L60 110M80 110L81 111L80 110M129 110L130 111L129 110M146 110L147 111L146 110M41 111L42 112L41 111M59 111L60 112L59 111M78 111L79 112L78 111M130 111L131 112L130 111M147 111L148 112L147 111z"/>
<path style="fill:#a8d25b; stroke:none;" d="M39 112L40 113L39 112z"/>
<path style="fill:#c8e398; stroke:none;" d="M58 112L59 113L58 112z"/>
<path style="fill:#a8d25b; stroke:none;" d="M76 112L77 113L76 112M131 112L132 113L131 112z"/>
<path style="fill:#c8e398; stroke:none;" d="M148 112L149 113L148 112z"/>
<path style="fill:#a8d25b; stroke:none;" d="M38 113L39 114L38 113z"/>
<path style="fill:#c8e398; stroke:none;" d="M57 113L58 114L57 113M75 113L76 114L75 113M94.6667 113.333L95.3333 113.667L94.6667 113.333z"/>
<path style="fill:#a8d25b; stroke:none;" d="M96.6667 113.333L97.3333 113.667L96.6667 113.333z"/>
<path style="fill:#75b701; stroke:none;" d="M101 145L100 113C94.3435 114.101 84.6935 116.021 82.2377 122.174C78.7585 130.889 93.8885 143.585 101 145z"/>
<path style="fill:#a8d25b; stroke:none;" d="M100 113L101 114L100 113M103.667 113.333L104.333 113.667L103.667 113.333z"/>
<path style="fill:#c8e398; stroke:none;" d="M149 113L150 114L149 113M37 114L38 115L37 114M56 114L57 115L56 114z"/>
<path style="fill:#a8d25b; stroke:none;" d="M73 114L74 115L73 114M92 114L93 115L92 114z"/>
<path style="fill:#c8e398; stroke:none;" d="M106 114L107 115L106 114z"/>
<path style="fill:#a8d25b; stroke:none;" d="M107 114L108 115L107 114z"/>
<path style="fill:#c8e398; stroke:none;" d="M134 114L135 115L134 114M150 114L151 115L150 114M36 115L37 116L36 115M55 115L56 116L55 115M72 115L73 116L72 115M89 115L90 116L89 115z"/>
<path style="fill:#a8d25b; stroke:none;" d="M90 115L91 116L90 115z"/>
<path style="fill:#c8e398; stroke:none;" d="M109 115L110 116L109 115M135 115L136 116L135 115M151 115L152 116L151 115z"/>
<path style="fill:#a8d25b; stroke:none;" d="M170 115L171 116L170 115z"/>
<path style="fill:#c8e398; stroke:none;" d="M35 116L36 117L35 116M71 116L72 117L71 116z"/>
<path style="fill:#a8d25b; stroke:none;" d="M88 116L89 117L88 116M111 116L112 117L111 116z"/>
<path style="fill:#c8e398; stroke:none;" d="M136 116L137 117L136 116z"/>
<path style="fill:#a8d25b; stroke:none;" d="M152 116L153 117L152 116M171 116L172 117L171 116z"/>
<path style="fill:#c8e398; stroke:none;" d="M34 117L35 118L34 117z"/>
<path style="fill:#a8d25b; stroke:none;" d="M69 117L70 118L69 117z"/>
<path style="fill:#c8e398; stroke:none;" d="M86 117L87 118L86 117M112 117L113 118L112 117z"/>
<path style="fill:#a8d25b; stroke:none;" d="M153 117L154 118L153 117z"/>
<path style="fill:#c8e398; stroke:none;" d="M172.333 117.667L172.667 118.333L172.333 117.667z"/>
<path style="fill:#a8d25b; stroke:none;" d="M53 118L54 119L53 118M68 118L69 119L68 118M85 118L86 119L85 118z"/>
<path style="fill:#c8e398; stroke:none;" d="M113 118L114 119L113 118M137 118L138 119L137 118M153 118L154 119L153 118M34 119L35 120L34 119M52.3333 119.667L52.6667 120.333L52.3333 119.667z"/>
<path style="fill:#a8d25b; stroke:none;" d="M67 119L68 120L67 119M84 119L85 120L84 119z"/>
<path style="fill:#c8e398; stroke:none;" d="M114 119L115 120L114 119M136 119L137 120L136 119M171 119L172 120L171 119z"/>
<path style="fill:#a8d25b; stroke:none;" d="M34 120L35 121L34 120M66 120L67 121L66 120M115 120L116 121L115 120z"/>
<path style="fill:#c8e398; stroke:none;" d="M135 120L136 121L135 120z"/>
<path style="fill:#a8d25b; stroke:none;" d="M152 120L153 121L152 120M170 120L171 121L170 120z"/>
<path style="fill:#c8e398; stroke:none;" d="M35 121L36 122L35 121M66 121L67 122L66 121z"/>
<path style="fill:#a8d25b; stroke:none;" d="M116 121L117 122L116 121M151 121L152 122L151 121M169 121L170 122L169 121M35 122L36 123L35 122M53 122L54 123L53 122M66 122L67 123L66 122M132 122L133 123L132 122z"/>
<path style="fill:#c8e398; stroke:none;" d="M150 122L151 123L150 122z"/>
<path style="fill:#a8d25b; stroke:none;" d="M168 122L169 123L168 122z"/>
<path style="fill:#c8e398; stroke:none;" d="M53 123L54 124L53 123M117 123L118 124L117 123z"/>
<path style="fill:#a8d25b; stroke:none;" d="M131 123L132 124L131 123z"/>
<path style="fill:#c8e398; stroke:none;" d="M149 123L150 124L149 123z"/>
<path style="fill:#a8d25b; stroke:none;" d="M167 123L168 124L167 123M36 124L37 125L36 124z"/>
<path style="fill:#c8e398; stroke:none;" d="M67 124L68 125L67 124z"/>
<path style="fill:#a8d25b; stroke:none;" d="M81 124L82 125L81 124M118 124L119 125L118 124z"/>
<path style="fill:#c8e398; stroke:none;" d="M130 124L131 125L130 124M148 124L149 125L148 124z"/>
<path style="fill:#a8d25b; stroke:none;" d="M166 124L167 125L166 124z"/>
<path style="fill:#c8e398; stroke:none;" d="M54 125L55 126L54 125z"/>
<path style="fill:#a8d25b; stroke:none;" d="M67 125L68 126L67 125z"/>
<path style="fill:#c8e398; stroke:none;" d="M81 125L82 126L81 125M118 125L119 126L118 125M129 125L130 126L129 125z"/>
<path style="fill:#a8d25b; stroke:none;" d="M165 125L166 126L165 125M37 126L38 127L37 126M82 126L83 127L82 126M119 126L120 127L119 126M164 126L165 127L164 126M55 127L56 128L55 127M68 127L69 128L68 127z"/>
<path style="fill:#c8e398; stroke:none;" d="M82 127L83 128L82 127z"/>
<path style="fill:#a8d25b; stroke:none;" d="M126 127L127 128L126 127M163 127L164 128L163 127M38 128L39 129L38 128z"/>
<path style="fill:#c8e398; stroke:none;" d="M120 128L121 129L120 128z"/>
<path style="fill:#a8d25b; stroke:none;" d="M125 128L126 129L125 128M145 128L146 129L145 128M162 128L163 129L162 128M56 129L57 130L56 129M69 129L70 130L69 129z"/>
<path style="fill:#c8e398; stroke:none;" d="M83 129L84 130L83 129z"/>
<path style="fill:#a8d25b; stroke:none;" d="M121 129L122 130L121 129z"/>
<path style="fill:#c8e398; stroke:none;" d="M124 129L125 130L124 129z"/>
<path style="fill:#a8d25b; stroke:none;" d="M144 129L145 130L144 129M161 129L162 130L161 129M39 130L40 131L39 130z"/>
<path style="fill:#c8e398; stroke:none;" d="M121 130L122 131L121 130M123 130L124 131L123 130z"/>
<path style="fill:#a8d25b; stroke:none;" d="M143 130L144 131L143 130M160 130L161 131L160 130z"/>
<path style="fill:#c8e398; stroke:none;" d="M40 131L41 132L40 131M57 131L58 132L57 131z"/>
<path style="fill:#a8d25b; stroke:none;" d="M70 131L71 132L70 131z"/>
<path style="fill:#c8e398; stroke:none;" d="M84 131L85 132L84 131M159 131L160 132L159 131z"/>
<path style="fill:#a8d25b; stroke:none;" d="M85 132L86 133L85 132z"/>
<path style="fill:#c8e398; stroke:none;" d="M158 132L159 133L158 132z"/>
<path style="fill:#a8d25b; stroke:none;" d="M180.667 132.333L181.333 132.667L180.667 132.333z"/>
<path style="fill:#c8e398; stroke:none;" d="M41 133L42 134L41 133M58 133L59 134L58 133z"/>
<path style="fill:#a8d25b; stroke:none;" d="M71 133L72 134L71 133z"/>
<path style="fill:#c8e398; stroke:none;" d="M157 133L158 134L157 133z"/>
<path style="fill:#75b701; stroke:none;" d="M102 165L102 174C136.774 174 172.008 164.558 201 145C197.413 140.784 185.915 132.227 180 133.708C171.003 135.959 161.193 147.673 153 152.547C136.769 162.203 120.612 165.23 102 165z"/>
<path style="fill:#c8e398; stroke:none;" d="M183 133L184 134L183 133z"/>
<path style="fill:#a8d25b; stroke:none;" d="M59 134L60 135L59 134z"/>
<path style="fill:#c8e398; stroke:none;" d="M72 134L73 135L72 134M86 134L87 135L86 134M138 134L139 135L138 134M177 134L178 135L177 134M185 134L186 135L185 134z"/>
<path style="fill:#a8d25b; stroke:none;" d="M42 135L43 136L42 135M87 135L88 136L87 135z"/>
<path style="fill:#c8e398; stroke:none;" d="M137 135L138 136L137 135z"/>
<path style="fill:#a8d25b; stroke:none;" d="M154 135L155 136L154 135z"/>
<path style="fill:#c8e398; stroke:none;" d="M176 135L177 136L176 135z"/>
<path style="fill:#a8d25b; stroke:none;" d="M186 135L187 136L186 135z"/>
<path style="fill:#c8e398; stroke:none;" d="M187 135L188 136L187 135M43 136L44 137L43 136z"/>
<path style="fill:#a8d25b; stroke:none;" d="M60 136L61 137L60 136M73 136L74 137L73 136M88 136L89 137L88 136M136 136L137 137L136 136M153 136L154 137L153 136M175 136L176 137L175 136M188 136L189 137L188 136z"/>
<path style="fill:#c8e398; stroke:none;" d="M74 137L75 138L74 137z"/>
<path style="fill:#a8d25b; stroke:none;" d="M135 137L136 138L135 137z"/>
<path style="fill:#c8e398; stroke:none;" d="M152 137L153 138L152 137z"/>
<path style="fill:#a8d25b; stroke:none;" d="M174 137L175 138L174 137M190 137L191 138L190 137M44 138L45 139L44 138z"/>
<path style="fill:#c8e398; stroke:none;" d="M61 138L62 139L61 138M75 138L76 139L75 138M133 138L134 139L133 138M192 138L193 139L192 138M45 139L46 140L45 139z"/>
<path style="fill:#a8d25b; stroke:none;" d="M62 139L63 140L62 139z"/>
<path style="fill:#c8e398; stroke:none;" d="M90 139L91 140L90 139z"/>
<path style="fill:#a8d25b; stroke:none;" d="M132 139L133 140L132 139M149 139L150 140L149 139z"/>
<path style="fill:#c8e398; stroke:none;" d="M171 139L172 140L171 139M194 139L195 140L194 139z"/>
<path style="fill:#a8d25b; stroke:none;" d="M76 140L77 141L76 140z"/>
<path style="fill:#c8e398; stroke:none;" d="M130 140L131 141L130 140M148 140L149 141L148 140z"/>
<path style="fill:#a8d25b; stroke:none;" d="M170 140L171 141L170 140M195 140L196 141L195 140M46 141L47 142L46 141M77 141L78 142L77 141M93 141L94 142L93 141M129 141L130 142L129 141M146 141L147 142L146 141M169 141L170 142L169 141M197 141L198 142L197 141M47 142L48 143L47 142z"/>
<path style="fill:#c8e398; stroke:none;" d="M64 142L65 143L64 142z"/>
<path style="fill:#a8d25b; stroke:none;" d="M78 142L79 143L78 142M94 142L95 143L94 142z"/>
<path style="fill:#c8e398; stroke:none;" d="M127 142L128 143L127 142M145 142L146 143L145 142M167 142L168 143L167 142M199 142L200 143L199 142M48 143L49 144L48 143z"/>
<path style="fill:#a8d25b; stroke:none;" d="M65 143L66 144L65 143M79 143L80 144L79 143z"/>
<path style="fill:#c8e398; stroke:none;" d="M95 143L96 144L95 143M125 143L126 144L125 143z"/>
<path style="fill:#a8d25b; stroke:none;" d="M143 143L144 144L143 143z"/>
<path style="fill:#c8e398; stroke:none;" d="M166 143L167 144L166 143z"/>
<path style="fill:#a8d25b; stroke:none;" d="M200 143L201 144L200 143z"/>
<path style="fill:#010101; stroke:none;" d="M0 144L0 256L112 256L112 255C70.588 254.145 30.5316 220.446 12.8086 185C6.23121 171.845 5.60986 157.005 0 144z"/>
<path style="fill:#a8d25b; stroke:none;" d="M66 144L67 145L66 144M80 144L81 145L80 144z"/>
<path style="fill:#c8e398; stroke:none;" d="M97 144L98 145L97 144M123 144L124 145L123 144M142 144L143 145L142 144z"/>
<path style="fill:#a8d25b; stroke:none;" d="M165 144L166 145L165 144z"/>
<path style="fill:#c8e398; stroke:none;" d="M201 144L202 145L201 144z"/>
<path style="fill:#010101; stroke:none;" d="M255 144C253.896 197.498 197.498 253.896 144 255L144 256L256 256L256 178L255 144z"/>
<path style="fill:#a8d25b; stroke:none;" d="M81 145L82 146L81 145z"/>
<path style="fill:#c8e398; stroke:none;" d="M99 145L100 146L99 145z"/>
<path style="fill:#a8d25b; stroke:none;" d="M100 145L101 146L100 145z"/>
<path style="fill:#c8e398; stroke:none;" d="M120 145L121 146L120 145z"/>
<path style="fill:#a8d25b; stroke:none;" d="M121 145L122 146L121 145M140 145L141 146L140 145z"/>
<path style="fill:#c8e398; stroke:none;" d="M163 145L164 146L163 145M200 145L201 146L200 145z"/>
<path style="fill:#a8d25b; stroke:none;" d="M50 146L51 147L50 146z"/>
<path style="fill:#c8e398; stroke:none;" d="M83 146L84 147L83 146M117 146L118 147L117 146z"/>
<path style="fill:#a8d25b; stroke:none;" d="M118 146L119 147L118 146M138 146L139 147L138 146z"/>
<path style="fill:#c8e398; stroke:none;" d="M139 146L140 147L139 146z"/>
<path style="fill:#a8d25b; stroke:none;" d="M162 146L163 147L162 146M198 146L199 147L198 146M51 147L52 148L51 147z"/>
<path style="fill:#c8e398; stroke:none;" d="M84 147L85 148L84 147z"/>
<path style="fill:#a8d25b; stroke:none;" d="M101 147L101 155L102 155L101 147M105 147L105 148L108 148L105 147z"/>
<path style="fill:#c8e398; stroke:none;" d="M108 147L108 148L112 148L108 147z"/>
<path style="fill:#a8d25b; stroke:none;" d="M112 147L112 148L115 148L112 147z"/>
<path style="fill:#c8e398; stroke:none;" d="M137 147L138 148L137 147M160 147L161 148L160 147M197 147L198 148L197 147M52 148L53 149L52 148M69 148L70 149L69 148z"/>
<path style="fill:#a8d25b; stroke:none;" d="M85 148L86 149L85 148z"/>
<path style="fill:#c8e398; stroke:none;" d="M135 148L136 149L135 148M159 148L160 149L159 148z"/>
<path style="fill:#a8d25b; stroke:none;" d="M195 148L196 149L195 148z"/>
<path style="fill:#c8e398; stroke:none;" d="M53 149L54 150L53 149M70 149L71 150L70 149M87 149L88 150L87 149M133 149L134 150L133 149M157 149L158 150L157 149M194 149L195 150L194 149M54 150L55 151L54 150M89 150L90 151L89 150z"/>
<path style="fill:#a8d25b; stroke:none;" d="M130 150L131 151L130 150z"/>
<path style="fill:#c8e398; stroke:none;" d="M131 150L132 151L131 150z"/>
<path style="fill:#a8d25b; stroke:none;" d="M156 150L157 151L156 150M192 150L193 151L192 150z"/>
<path style="fill:#c8e398; stroke:none;" d="M55 151L56 152L55 151M91 151L92 152L91 151z"/>
<path style="fill:#a8d25b; stroke:none;" d="M128 151L129 152L128 151z"/>
<path style="fill:#c8e398; stroke:none;" d="M129 151L130 152L129 151M154 151L155 152L154 151M191 151L192 152L191 151M56 152L57 153L56 152z"/>
<path style="fill:#a8d25b; stroke:none;" d="M74 152L75 153L74 152M93 152L94 153L93 152M125 152L126 153L125 152z"/>
<path style="fill:#c8e398; stroke:none;" d="M126 152L127 153L126 152z"/>
<path style="fill:#a8d25b; stroke:none;" d="M153 152L154 153L153 152z"/>
<path style="fill:#c8e398; stroke:none;" d="M189 152L190 153L189 152M57 153L58 154L57 153z"/>
<path style="fill:#a8d25b; stroke:none;" d="M75 153L76 154L75 153M95 153L96 154L95 153z"/>
<path style="fill:#c8e398; stroke:none;" d="M96 153L97 154L96 153z"/>
<path style="fill:#a8d25b; stroke:none;" d="M122 153L123 154L122 153z"/>
<path style="fill:#c8e398; stroke:none;" d="M123 153L124 154L123 153z"/>
<path style="fill:#a8d25b; stroke:none;" d="M151 153L152 154L151 153z"/>
<path style="fill:#c8e398; stroke:none;" d="M187 153L188 154L187 153M58 154L59 155L58 154M76 154L77 155L76 154z"/>
<path style="fill:#a8d25b; stroke:none;" d="M99 154L100 155L99 154z"/>
<path style="fill:#c8e398; stroke:none;" d="M100 154L101 155L100 154z"/>
<path style="fill:#a8d25b; stroke:none;" d="M117.667 154.333L118.333 154.667L117.667 154.333z"/>
<path style="fill:#c8e398; stroke:none;" d="M119 154L120 155L119 154M149 154L150 155L149 154z"/>
<path style="fill:#a8d25b; stroke:none;" d="M185 154L186 155L185 154z"/>
<path style="fill:#c8e398; stroke:none;" d="M59 155L60 156L59 155M101 155L101 165L102 165L101 155M105 155L105 156L114 156L105 155M147 155L148 156L147 155z"/>
<path style="fill:#a8d25b; stroke:none;" d="M183 155L184 156L183 155M60 156L61 157L60 156M79 156L80 157L79 156z"/>
<path style="fill:#c8e398; stroke:none;" d="M145 156L146 157L145 156M181 156L182 157L181 156z"/>
<path style="fill:#a8d25b; stroke:none;" d="M61 157L62 158L61 157z"/>
<path style="fill:#c8e398; stroke:none;" d="M80 157L81 158L80 157z"/>
<path style="fill:#a8d25b; stroke:none;" d="M81 157L82 158L81 157z"/>
<path style="fill:#c8e398; stroke:none;" d="M143 157L144 158L143 157M179 157L180 158L179 157M82 158L83 159L82 158M140 158L141 159L140 158z"/>
<path style="fill:#a8d25b; stroke:none;" d="M141 158L142 159L141 158M176 158L177 159L176 158z"/>
<path style="fill:#c8e398; stroke:none;" d="M177 158L178 159L177 158M64 159L65 160L64 159M84 159L85 160L84 159M138 159L139 160L138 159z"/>
<path style="fill:#a8d25b; stroke:none;" d="M139 159L140 160L139 159M174 159L175 160L174 159M65 160L66 161L65 160z"/>
<path style="fill:#c8e398; stroke:none;" d="M86 160L87 161L86 160M135 160L136 161L135 160z"/>
<path style="fill:#a8d25b; stroke:none;" d="M136 160L137 161L136 160M171 160L172 161L171 160z"/>
<path style="fill:#c8e398; stroke:none;" d="M172 160L173 161L172 160M67 161L68 162L67 161M88 161L89 162L88 161z"/>
<path style="fill:#a8d25b; stroke:none;" d="M89 161L90 162L89 161z"/>
<path style="fill:#c8e398; stroke:none;" d="M132 161L133 162L132 161z"/>
<path style="fill:#a8d25b; stroke:none;" d="M133 161L134 162L133 161M169 161L170 162L169 161M68 162L69 163L68 162z"/>
<path style="fill:#c8e398; stroke:none;" d="M91 162L92 163L91 162z"/>
<path style="fill:#a8d25b; stroke:none;" d="M92 162L93 163L92 162z"/>
<path style="fill:#c8e398; stroke:none;" d="M128.667 162.333L129.333 162.667L128.667 162.333z"/>
<path style="fill:#a8d25b; stroke:none;" d="M130 162L131 163L130 162M166 162L167 163L166 162z"/>
<path style="fill:#c8e398; stroke:none;" d="M167 162L168 163L167 162M70 163L71 164L70 163M94 163L95 164L94 163z"/>
<path style="fill:#a8d25b; stroke:none;" d="M95 163L96 164L95 163z"/>
<path style="fill:#c8e398; stroke:none;" d="M124 163L125 164L124 163z"/>
<path style="fill:#a8d25b; stroke:none;" d="M125.667 163.333L126.333 163.667L125.667 163.333M163 163L164 164L163 163z"/>
<path style="fill:#c8e398; stroke:none;" d="M164 163L165 164L164 163z"/>
<path style="fill:#a8d25b; stroke:none;" d="M71 164L72 165L71 164z"/>
<path style="fill:#c8e398; stroke:none;" d="M98.6667 164.333L99.3333 164.667L98.6667 164.333z"/>
<path style="fill:#a8d25b; stroke:none;" d="M100 164L101 165L100 164z"/>
<path style="fill:#c8e398; stroke:none;" d="M117.667 164.333L118.333 164.667L117.667 164.333z"/>
<path style="fill:#a8d25b; stroke:none;" d="M119.667 164.333L120.333 164.667L119.667 164.333M160 164L161 165L160 164z"/>
<path style="fill:#c8e398; stroke:none;" d="M161 164L162 165L161 164M73 165L74 166L73 165z"/>
<path style="fill:#a8d25b; stroke:none;" d="M101 165L101 174L102 174L101 165M108.667 165.333L109.333 165.667L108.667 165.333M157 165L158 166L157 165z"/>
<path style="fill:#c8e398; stroke:none;" d="M158 165L159 166L158 165M75 166L76 167L75 166z"/>
<path style="fill:#a8d25b; stroke:none;" d="M154 166L155 167L154 166z"/>
<path style="fill:#c8e398; stroke:none;" d="M155 166L156 167L155 166M77 167L78 168L77 167z"/>
<path style="fill:#a8d25b; stroke:none;" d="M150 167L151 168L150 167z"/>
<path style="fill:#c8e398; stroke:none;" d="M151.667 167.333L152.333 167.667L151.667 167.333z"/>
<path style="fill:#a8d25b; stroke:none;" d="M79 168L80 169L79 168M147 168L148 169L147 168z"/>
<path style="fill:#c8e398; stroke:none;" d="M148 168L149 169L148 168z"/>
<path style="fill:#a8d25b; stroke:none;" d="M81 169L82 170L81 169z"/>
<path style="fill:#c8e398; stroke:none;" d="M82 169L83 170L82 169z"/>
<path style="fill:#a8d25b; stroke:none;" d="M143 169L144 170L143 169z"/>
<path style="fill:#c8e398; stroke:none;" d="M144 169L145 170L144 169z"/>
<path style="fill:#a8d25b; stroke:none;" d="M84 170L85 171L84 170z"/>
<path style="fill:#c8e398; stroke:none;" d="M85 170L86 171L85 170z"/>
<path style="fill:#a8d25b; stroke:none;" d="M138.667 170.333L139.333 170.667L138.667 170.333z"/>
<path style="fill:#c8e398; stroke:none;" d="M140 170L141 171L140 170z"/>
<path style="fill:#a8d25b; stroke:none;" d="M87 171L88 172L87 171z"/>
<path style="fill:#c8e398; stroke:none;" d="M88 171L89 172L88 171z"/>
<path style="fill:#a8d25b; stroke:none;" d="M133.667 171.333L134.333 171.667L133.667 171.333z"/>
<path style="fill:#c8e398; stroke:none;" d="M135 171L136 172L135 171z"/>
<path style="fill:#a8d25b; stroke:none;" d="M90.6667 172.333L91.3333 172.667L90.6667 172.333z"/>
<path style="fill:#c8e398; stroke:none;" d="M92 172L93 173L92 172z"/>
<path style="fill:#a8d25b; stroke:none;" d="M128 172L129 173L128 172z"/>
<path style="fill:#c8e398; stroke:none;" d="M129.667 172.333L130.333 172.667L129.667 172.333z"/>
<path style="fill:#a8d25b; stroke:none;" d="M95.6667 173.333L96.3333 173.667L95.6667 173.333z"/>
<path style="fill:#c8e398; stroke:none;" d="M97.6667 173.333L98.3333 173.667L97.6667 173.333z"/>
<path style="fill:#a8d25b; stroke:none;" d="M120 173L120 174L123 174L120 173z"/>
<path style="fill:#c8e398; stroke:none;" d="M123.667 173.333L124.333 173.667L123.667 173.333M101 174L101 188L102 188L101 174M103 174L103 175L116 175L103 174z"/>
</svg>
