<?xml version="1.0" standalone="no"?>
<!DOCTYPE svg PUBLIC "-//W3C//DTD SVG 20010904//EN"
 "http://www.w3.org/TR/2001/REC-SVG-20010904/DTD/svg10.dtd">
<svg version="1.0" xmlns="http://www.w3.org/2000/svg"
 width="432.000000pt" height="92.000000pt" viewBox="0 0 432.000000 92.000000"
 preserveAspectRatio="xMidYMid meet">

<g transform="translate(0.000000,92.000000) scale(0.100000,-0.100000)"
fill="#000000" stroke="none">
<path d="M380 831 c-140 -43 -247 -176 -258 -319 -8 -119 31 -226 114 -306 36
-35 144 -96 171 -96 22 0 15 18 -18 41 -41 29 -79 111 -79 169 1 88 46 148
181 243 51 35 71 56 83 88 46 116 -65 219 -194 180z"/>
<path d="M2188 710 l-28 -15 0 -222 0 -223 29 0 29 0 4 100 c4 110 13 129 63
133 42 3 55 -29 55 -140 0 -99 9 -113 45 -76 14 14 17 33 13 116 -4 94 -5 101
-31 123 -32 28 -83 32 -113 9 -10 -8 -22 -15 -26 -15 -4 0 -9 51 -10 113 l-3
113 -27 -16z"/>
<path d="M1742 668 c-32 -32 18 -87 53 -58 28 23 12 70 -25 70 -9 0 -21 -5
-28 -12z"/>
<path d="M2492 668 c-28 -28 -1 -75 38 -63 14 4 20 15 20 35 0 36 -33 53 -58
28z"/>
<path d="M2798 664 l-28 -15 0 -199 0 -200 91 0 c98 0 129 10 129 40 0 18 -7
20 -80 20 l-80 0 -2 184 -3 184 -27 -14z"/>
<path d="M1107 643 c-4 -3 -7 -15 -7 -25 0 -15 8 -18 50 -18 l50 0 0 -176 0
-175 33 3 32 3 3 173 2 172 40 0 c28 0 42 5 49 19 6 10 7 21 4 25 -8 8 -248 8
-256 -1z"/>
<path d="M750 543 c0 -19 -14 -39 -52 -74 -45 -41 -52 -53 -52 -85 0 -43 39
-84 80 -84 55 0 84 28 107 101 9 27 -13 102 -39 136 -30 40 -44 42 -44 6z"/>
<path d="M1432 510 c-80 -49 -83 -179 -6 -239 33 -26 115 -29 134 -6 7 8 16
15 21 15 5 0 9 -7 9 -15 0 -18 14 -19 41 -5 17 10 19 22 19 135 l0 125 -30 0
c-21 0 -30 -5 -30 -16 0 -13 -5 -12 -26 5 -34 27 -89 27 -132 1z m133 -55 c33
-32 35 -105 5 -135 -36 -36 -102 -25 -125 21 -23 43 -18 77 14 110 36 36 73
37 106 4z"/>
<path d="M1951 512 c-51 -26 -75 -63 -75 -120 0 -56 30 -112 69 -130 30 -14
114 -16 134 -3 10 6 11 13 3 27 -8 14 -20 18 -55 15 -38 -2 -47 1 -66 25 -30
39 -28 98 5 131 21 21 32 25 64 20 49 -6 76 17 45 39 -26 19 -83 18 -124 -4z"/>
<path d="M3110 523 c-28 -10 -70 -56 -81 -90 -15 -46 -3 -104 30 -143 22 -27
35 -33 79 -38 37 -3 58 0 76 11 21 14 25 14 30 2 7 -20 30 -19 49 3 14 15 17
41 17 135 l0 117 -35 0 c-19 0 -35 -5 -35 -10 0 -6 -13 -4 -30 5 -29 15 -71
18 -100 8z m115 -75 c22 -26 26 -39 22 -71 -7 -53 -31 -77 -79 -77 -53 0 -78
27 -78 85 0 89 81 127 135 63z"/>
<path d="M3482 514 c-12 -8 -22 -10 -22 -5 0 6 -16 11 -35 11 l-35 0 0 -136 0
-135 33 3 32 3 5 102 c3 56 10 106 15 112 6 5 22 13 36 16 45 11 59 -22 59
-137 0 -104 8 -118 45 -81 14 13 16 33 13 115 -3 95 -4 101 -31 124 -33 28
-82 32 -115 8z"/>
<path d="M3763 510 c-84 -51 -85 -200 -1 -246 36 -21 101 -17 132 7 l26 20 0
-41 c0 -30 -6 -47 -25 -65 -28 -29 -42 -30 -92 -10 -20 8 -37 14 -38 13 -1 -2
-7 -12 -13 -24 -10 -18 -8 -23 14 -33 76 -34 163 -20 195 33 17 27 19 51 19
194 l0 162 -30 0 c-21 0 -30 -5 -30 -16 0 -13 -5 -12 -26 5 -34 27 -89 27
-131 1z m132 -55 c32 -31 34 -91 4 -129 -29 -37 -89 -37 -118 0 -47 60 -11
154 59 154 19 0 40 -9 55 -25z"/>
<path d="M1740 385 c0 -139 2 -145 41 -125 17 10 19 22 19 135 l0 125 -30 0
-30 0 0 -135z"/>
<path d="M2482 388 c3 -113 5 -133 19 -136 9 -2 24 4 33 13 13 13 16 39 16
136 l0 119 -35 0 -36 0 3 -132z"/>
</g>
</svg>
